<?xml version="1.0" encoding="UTF-8"?>
<svg width="47px" height="47px" viewBox="0 0 47 47" version="1.1" xmlns="http://www.w3.org/2000/svg" xmlns:xlink="http://www.w3.org/1999/xlink">
    <!-- Generator: Sketch 52.5 (67469) - http://www.bohemiancoding.com/sketch -->
    <title>logo</title>
    <desc>Created with Sketch.</desc>
    <g id="Page-1" stroke="none" stroke-width="1" fill="none" fill-rule="evenodd">
        <g id="Creation" transform="translate(-480.000000, -193.000000)" fill="#000000">
            <g id="header" transform="translate(480.000000, 193.000000)">
                <path d="M0,46.9999746 L0,-2.13162821e-14 L7.34373809,-2.13162821e-14 L7.34373809,46.9999746 L0,46.9999746 Z M13.436503,46.9999746 L13.436503,-2.13162821e-14 L16.6807677,-2.13162821e-14 C18.5963901,-2.13162821e-14 20.1493091,1.55303159 20.1493091,3.46885218 L20.1493091,43.5311224 C20.1493091,45.446943 18.5963901,46.9999746 16.6807677,46.9999746 L13.436503,46.9999746 Z M33.574337,46.9999746 L30.3300723,46.9999746 C28.414704,46.9999746 26.861785,45.446943 26.861785,43.5311224 L26.861785,3.46885218 C26.861785,1.55303159 28.414704,-2.13162821e-14 30.3300723,-2.13162821e-14 L33.574337,-2.13162821e-14 L33.574337,46.9999746 Z M40.2871939,2.48689958e-14 L43.5317126,2.48689958e-14 C45.447081,2.48689958e-14 47,1.55303159 47,3.46885218 L47,17.3719528 L40.2871939,17.3719528 L40.2871939,2.48689958e-14 Z M46.9999238,29.6280472 L46.9999238,43.5311478 C46.9999238,45.4469684 45.4472588,47 43.5318904,47 L40.2871177,47 L40.2871177,29.6280472 L46.9999238,29.6280472 Z" id="logo"></path>
            </g>
        </g>
    </g>
</svg>